<svg width="320" height="29" viewBox="0 0 320 29" fill="none" xmlns="http://www.w3.org/2000/svg">
<path d="M5.61369 22.4548H22.4548V5.61369H0V0H28.0685V28.0685H0V11.2274H5.61369V22.4548Z" fill="white"/>
<path d="M39.2934 0V28.0685H33.6797V0H39.2934Z" fill="white"/>
<path d="M72.9767 5.61369H50.5219V11.2274H72.9767V28.0685H44.9082V22.4548H67.363V16.8411H44.9082V0H72.9767V5.61369Z" fill="white"/>
<path d="M89.8172 16.8411H84.2035V28.0685H78.5898V0H106.658V16.8411H96.747L106.658 28.0685H99.7285L89.8172 16.8411ZM84.2035 5.61369V11.2274H101.045V5.61369H84.2035Z" fill="white"/>
<path d="M117.885 0V22.4548H134.726V0H140.34V28.0685H112.271V0H117.885Z" fill="white"/>
<path d="M151.567 28.0685H145.953V0H174.022V16.8411H151.567V28.0685ZM168.408 11.2274V5.61369H151.567V11.2274H168.408Z" fill="white"/>
<path d="M179.635 0H207.703V5.61369H196.476V28.0685H190.862V5.61369H179.635V0Z" fill="white"/>
<path d="M218.928 0V28.0685H213.314V0H218.928Z" fill="white"/>
<path d="M252.611 0V28.0685H224.543V0H252.611ZM230.157 5.61369V22.4548H246.998V5.61369H230.157Z" fill="white"/>
<path d="M258.225 28.0685V0H263.838L280.679 19.911V0H286.293V28.0685H280.679L263.838 8.77201V28.0685H258.225Z" fill="white"/>
<path d="M296.379 23.5941V26.9151H293.044V23.5941H296.379ZM297.518 22.4548H291.904V28.0685H297.518V22.4548ZM301.992 17.9804V21.3015H298.657V17.9804H301.992ZM303.132 16.8411H297.518V22.4548H303.132V16.8411ZM318.848 23.5941V26.9151H315.526V23.5941H318.848ZM320.001 22.4548H314.387V28.0685H320.001V22.4548ZM313.234 17.9804V21.3015H309.913V17.9804H313.234ZM314.387 16.8411H308.759V22.4548H314.373L314.387 16.8411ZM308.759 11.2274H303.146V16.8411H308.759V11.2274ZM296.379 1.13929V4.46037H293.044V1.13929H296.379ZM297.518 0H291.904V5.61369H297.518V0ZM301.992 6.75299V10.0741H298.671V6.75299H301.992ZM303.132 5.61369H297.518V11.2274H303.132V5.61369ZM318.848 1.13929V4.46037H315.526V1.13929H318.848ZM320.001 0H314.387V5.61369H320.001V0ZM313.234 6.75299V10.0741H309.913V6.75299H313.234ZM314.387 5.61369H308.759V11.2274H314.373L314.387 5.61369Z" fill="url(#paint0_linear_12354_167724)"/>
<defs>
<linearGradient id="paint0_linear_12354_167724" x1="291.136" y1="14.0342" x2="320.594" y2="14.0342" gradientUnits="userSpaceOnUse">
<stop stop-color="#3783FF"/>
<stop offset="1" stop-color="#23EFF9"/>
</linearGradient>
</defs>
</svg>
