<svg width="338" height="52" viewBox="0 0 338 52" fill="none" xmlns="http://www.w3.org/2000/svg">
<path d="M307.733 38.2612V42.5208H303.46V38.2612H307.733ZM309.193 36.8H302V44H309.193V36.8ZM314.926 31.0612V35.3208H310.653V31.0612H314.926ZM316.386 29.6H309.193V36.8H316.386V29.6ZM336.522 38.2612V42.5208H332.267V38.2612H336.522ZM338 36.8H330.807V44H338V36.8ZM329.329 31.0612V35.3208H325.074V31.0612H329.329ZM330.807 29.6H323.596V36.8H330.789L330.807 29.6ZM323.596 22.4H316.404V29.6H323.596V22.4ZM307.733 9.46123V13.7208H303.46V9.46123H307.733ZM309.193 8H302V15.2H309.193V8ZM314.926 16.6612V20.9208H310.671V16.6612H314.926ZM316.386 15.2H309.193V22.4H316.386V15.2ZM336.522 9.46123V13.7208H332.267V9.46123H336.522ZM338 8H330.807V15.2H338V8ZM329.329 16.6612V20.9208H325.074V16.6612H329.329ZM330.807 15.2H323.596V22.4H330.789L330.807 15.2Z" fill="url(#paint0_linear_12350_167506)"/>
<path d="M5.61369 34.4196H22.4548V17.5785H0V11.9648H28.0685V40.0333H0V23.1922H5.61369V34.4196Z" fill="white"/>
<path d="M39.2934 11.9648V40.0333H33.6797V11.9648H39.2934Z" fill="white"/>
<path d="M72.9767 17.5785H50.5219V23.1922H72.9767V40.0333H44.9082V34.4196H67.363V28.8059H44.9082V11.9648H72.9767V17.5785Z" fill="white"/>
<path d="M89.8172 28.8059H84.2035V40.0333H78.5898V11.9648H106.658V28.8059H96.747L106.658 40.0333H99.7285L89.8172 28.8059ZM84.2035 17.5785V23.1922H101.045V17.5785H84.2035Z" fill="white"/>
<path d="M117.885 11.9648V34.4196H134.726V11.9648H140.34V40.0333H112.271V11.9648H117.885Z" fill="white"/>
<path d="M151.567 40.0333H145.953V11.9648H174.022V28.8059H151.567V40.0333ZM168.408 23.1922V17.5785H151.567V23.1922H168.408Z" fill="white"/>
<path d="M179.635 11.9648H207.703V17.5785H196.476V40.0333H190.862V17.5785H179.635V11.9648Z" fill="white"/>
<path d="M218.928 11.9648V40.0333H213.314V11.9648H218.928Z" fill="white"/>
<path d="M252.611 11.9648V40.0333H224.543V11.9648H252.611ZM230.157 17.5785V34.4196H246.998V17.5785H230.157Z" fill="white"/>
<path d="M258.225 40.0333V11.9648H263.838L280.679 31.8759V11.9648H286.293V40.0333H280.679L263.838 20.7369V40.0333H258.225Z" fill="white"/>
<defs>
<linearGradient id="paint0_linear_12350_167506" x1="301.016" y1="26" x2="338.76" y2="26" gradientUnits="userSpaceOnUse">
<stop stop-color="#3783FF"/>
<stop offset="1" stop-color="#23EFF9"/>
</linearGradient>
</defs>
</svg>
