<svg width="32" height="32" viewBox="0 0 32 32" fill="none" xmlns="http://www.w3.org/2000/svg">
<path fill-rule="evenodd" clip-rule="evenodd" d="M1.08993 5.46009C0 7.59921 0 10.3995 0 16C0 21.6005 0 24.4008 1.08993 26.5399C2.04867 28.4215 3.57847 29.9513 5.46009 30.9101C7.59921 32 10.3995 32 16 32C21.6005 32 24.4008 32 26.5399 30.9101C28.4215 29.9513 29.9513 28.4215 30.9101 26.5399C32 24.4008 32 21.6005 32 16C32 10.3995 32 7.59921 30.9101 5.46009C29.9513 3.57847 28.4215 2.04867 26.5399 1.08993C24.4008 0 21.6005 0 16 0C10.3995 0 7.59921 0 5.46009 1.08993C3.57847 2.04867 2.04867 3.57847 1.08993 5.46009ZM19.0973 7C20.6893 7.27573 22.212 7.75997 23.6361 8.42627C26.1261 12.1448 27.3633 16.3387 26.9065 21.1759C25.0014 22.6004 23.1533 23.4646 21.3364 24.0301C20.8865 23.4134 20.4886 22.7559 20.1442 22.0666C20.8 21.8174 21.4299 21.5099 22.0251 21.1512C21.8694 21.0345 21.7154 20.9125 21.5648 20.7871C17.9882 22.4802 14.055 22.4802 10.4351 20.7871C10.2863 20.9125 10.1323 21.0345 9.97482 21.1512C10.5683 21.5082 11.1964 21.8157 11.8522 22.0649C11.5079 22.7559 11.1082 23.4116 10.66 24.0284C8.84487 23.4628 6.99856 22.5986 5.09342 21.1759C4.70409 17.0032 5.48276 12.7704 8.35518 8.4298C9.77928 7.76175 11.3037 7.27573 12.8974 7C13.0947 7.35348 13.3283 7.82891 13.4857 8.20712C15.1469 7.95262 16.8236 7.95262 18.5159 8.20712C18.6734 7.82891 18.9018 7.35348 19.0973 7ZM10.3676 16.3599C10.3676 17.5952 11.2587 18.6097 12.3454 18.6097C13.4511 18.6097 14.325 17.5952 14.3232 16.3599C14.3423 15.1227 13.4511 14.1083 12.3454 14.1083C11.2397 14.1083 10.3676 15.1245 10.3676 16.3599ZM17.6767 16.3599C17.6767 17.5952 18.5678 18.6097 19.6545 18.6097C20.7602 18.6097 21.6323 17.5952 21.6323 16.3599C21.6514 15.1227 20.7602 14.1083 19.6545 14.1083C18.5488 14.1083 17.6767 15.1245 17.6767 16.3599Z" fill="#1FA1ED"/>
</svg>
