<svg width="32" height="32" viewBox="0 0 32 32" fill="none" xmlns="http://www.w3.org/2000/svg">
<path fill-rule="evenodd" clip-rule="evenodd" d="M32 10V22C32 27.5226 27.5226 32 22 32H18.4997V20.7631H22.2281L22.9371 16.1364H18.4997V13.1346C18.4997 11.8695 19.1182 10.6349 21.1076 10.6349H23.1264V6.69724C23.1264 6.69724 21.2945 6.38448 19.5438 6.38448C15.8895 6.38448 13.5003 8.59847 13.5003 12.6102V16.1364H9.4368V20.7631H13.5003V32H10C4.47737 32 0 27.5226 0 22V10C0 4.47737 4.47737 0 10 0H22C27.5226 0 32 4.47737 32 10Z" fill="#1FA1ED"/>
</svg>
