<svg width="32" height="32" viewBox="0 0 32 32" fill="none" xmlns="http://www.w3.org/2000/svg">
<path fill-rule="evenodd" clip-rule="evenodd" d="M22.2776 10.8748C22.2776 11.5109 21.7614 12.0271 21.1253 12.0271C20.4892 12.0271 19.9731 11.5109 19.9731 10.8748C19.9731 10.2387 20.4892 9.72256 21.1253 9.72256C21.7614 9.72256 22.2776 10.2387 22.2776 10.8748ZM20.9301 16.0001C20.9301 18.7232 18.7232 20.9301 16.0001 20.9301C13.277 20.9301 11.07 18.7232 11.07 16.0001C11.07 13.277 13.277 11.07 16.0001 11.07C18.7232 11.07 20.9301 13.277 20.9301 16.0001ZM19.2006 16.0001C19.2006 14.2329 17.7673 12.7996 16.0001 12.7996C14.2329 12.7996 12.7996 14.2317 12.7996 16.0001C12.7996 17.7685 14.2317 19.2006 16.0001 19.2006C17.7685 19.2006 19.2006 17.7685 19.2006 16.0001ZM32.0002 10.0001V22.0001C32.0002 27.5228 27.5228 32.0002 22.0001 32.0002H10.0001C4.47739 32.0002 0 27.5228 0 22.0001V10.0001C0 4.47739 4.47739 0 10.0001 0H22.0001C27.5228 0 32.0002 4.47739 32.0002 10.0001ZM25.6004 16.0001C25.6004 13.3922 25.5898 13.0653 25.5428 12.0424C25.4957 11.0206 25.3335 10.3222 25.096 9.71198C24.8502 9.08059 24.5222 8.5456 23.9884 8.0118C23.4546 7.47799 22.9196 7.14995 22.2882 6.90421C21.6768 6.6667 20.9795 6.50444 19.9578 6.45859C18.9337 6.41155 18.6068 6.40097 15.9989 6.40097C13.391 6.40097 13.0653 6.41155 12.0412 6.45859C11.0195 6.50444 10.321 6.6667 9.7108 6.90421C9.07941 7.14995 8.54443 7.47799 8.01062 8.0118C7.47681 8.5456 7.14877 9.08059 6.90303 9.71198C6.66552 10.3222 6.50326 11.0206 6.45623 12.0424C6.4092 13.0665 6.39862 13.3934 6.39862 16.0001C6.39862 18.6068 6.4092 18.9337 6.45623 19.9578C6.50209 20.9795 6.66435 21.6779 6.90303 22.2882C7.1476 22.9196 7.47681 23.4546 8.01062 23.9884C8.54443 24.5222 9.07941 24.8502 9.7108 25.096C10.321 25.3335 11.0195 25.4957 12.0412 25.5416C13.0653 25.5886 13.3922 25.5992 15.9989 25.5992C18.6056 25.5992 18.9337 25.5886 19.9578 25.5416C20.9795 25.4945 21.6779 25.3335 22.2882 25.096C22.9196 24.8502 23.4546 24.5222 23.9884 23.9884C24.5222 23.4546 24.8502 22.9196 25.096 22.2882C25.3335 21.6779 25.4957 20.9795 25.5428 19.9578C25.5898 18.9337 25.6004 18.6068 25.6004 16.0001Z" fill="#1FA1ED"/>
</svg>
