<svg width="32" height="32" viewBox="0 0 32 32" fill="none" xmlns="http://www.w3.org/2000/svg">
<path d="M22 0H9.99999C4.47736 0 0 4.47737 0 10V22C0 27.5226 4.47736 32 9.99999 32H22C27.5226 32 32 27.5226 32 22V10C32 4.47737 27.5226 0 22 0ZM23.4756 12.167C23.4827 12.3327 23.4862 12.4985 23.4862 12.6655C23.4862 17.7625 19.6061 23.6402 12.5115 23.6402C10.3327 23.6402 8.30571 23.0018 6.59847 21.9071C6.90065 21.9424 7.20752 21.96 7.5191 21.96C9.32628 21.96 10.9888 21.3439 12.3092 20.3092C10.6208 20.2775 9.19694 19.1628 8.70546 17.6296C8.94062 17.6743 9.18166 17.699 9.43092 17.699C9.78248 17.699 10.1235 17.652 10.448 17.5638C8.68313 17.2099 7.35331 15.6508 7.35331 13.7825C7.35331 13.766 7.35331 13.7496 7.35331 13.7331C7.87301 14.0223 8.46795 14.1964 9.10052 14.2152C8.06466 13.5238 7.38389 12.3422 7.38389 11.0041C7.38389 10.2975 7.57437 9.63551 7.90594 9.06526C9.80835 11.3992 12.6502 12.9336 15.8566 13.0947C15.7907 12.8125 15.7566 12.5185 15.7566 12.2152C15.7566 10.0858 17.4838 8.35861 19.6143 8.35861C20.7231 8.35861 21.7261 8.82775 22.4303 9.57672C23.3087 9.40388 24.134 9.08172 24.8795 8.6408C24.5914 9.54145 23.98 10.2975 23.1828 10.7748C23.9635 10.682 24.7067 10.475 25.398 10.1681C24.8818 10.9418 24.2269 11.6214 23.4733 12.1658L23.4756 12.167Z" fill="#1FA1ED"/>
</svg>
