<svg width="32" height="32" viewBox="0 0 32 32" fill="none" xmlns="http://www.w3.org/2000/svg">
<path fill-rule="evenodd" clip-rule="evenodd" d="M22 0H10C4.47737 0 0 4.47737 0 10V22C0 27.5226 4.47737 32 10 32H22C27.5226 32 32 27.5226 32 22V10C32 4.47737 27.5226 0 22 0ZM25.6002 16.7255C25.6002 18.2787 25.4086 19.833 25.4086 19.833C25.4086 19.833 25.2205 21.1558 24.6455 21.739C23.9154 22.5032 23.097 22.5079 22.7219 22.5526C20.0353 22.7466 16.0012 22.7525 16.0012 22.7525C16.0012 22.7525 11.0088 22.7066 9.47326 22.5597C9.04645 22.4797 8.08701 22.5032 7.35568 21.739C6.77955 21.1558 6.5926 19.833 6.5926 19.833C6.5926 19.833 6.40095 18.2798 6.40095 16.7255V15.2687C6.40095 13.7155 6.5926 12.1611 6.5926 12.1611C6.5926 12.1611 6.77955 10.8383 7.35568 10.2551C8.08584 9.49089 8.90418 9.48619 9.27925 9.44151C11.9659 9.2475 15.9965 9.2475 15.9965 9.2475H16.0047C16.0047 9.2475 20.0353 9.2475 22.7219 9.44151C23.097 9.48619 23.9154 9.48971 24.6455 10.2551C25.2216 10.8383 25.4086 12.1611 25.4086 12.1611C25.4086 12.1611 25.6002 13.7143 25.6002 15.2687V16.7255ZM14.0165 13.0958L19.204 15.8025L14.0165 18.4903V13.0958Z" fill="#1FA1ED"/>
</svg>
